<svg width="22" height="23" viewBox="0 0 22 23" fill="none" xmlns="http://www.w3.org/2000/svg">
<path d="M8.14386 16.7289C8.22907 16.8148 8.33046 16.883 8.44216 16.9295C8.55386 16.976 8.67368 17 8.79469 17C8.9157 17 9.03551 16.976 9.14722 16.9295C9.25892 16.883 9.36031 16.8148 9.44552 16.7289L14.0289 12.1455C14.1148 12.0603 14.183 11.9589 14.2295 11.8472C14.276 11.7355 14.3 11.6157 14.3 11.4947C14.3 11.3737 14.276 11.2539 14.2295 11.1422C14.183 11.0305 14.1148 10.9291 14.0289 10.8438L9.44552 6.26052C9.36031 6.1746 9.25892 6.1064 9.14722 6.05986C9.03551 6.01333 8.9157 5.98937 8.79469 5.98937C8.67368 5.98937 8.55387 6.01333 8.44216 6.05986C8.33046 6.1064 8.22907 6.1746 8.14386 6.26052C8.05794 6.34573 7.98974 6.44712 7.94321 6.55882C7.89667 6.67052 7.87271 6.79034 7.87271 6.91135C7.87271 7.03236 7.89667 7.15217 7.94321 7.26388C7.98974 7.37558 8.05794 7.47696 8.14386 7.56218L12.0855 11.4947L8.14386 15.4272C8.05794 15.5124 7.98974 15.6138 7.94321 15.7255C7.89667 15.8372 7.87271 15.957 7.87271 16.078C7.87271 16.199 7.89667 16.3188 7.94321 16.4305C7.98974 16.5423 8.05794 16.6436 8.14386 16.7289Z" fill="#3C84B8"/>
</svg>
