<svg width="22" height="23" viewBox="0 0 22 23" fill="none" xmlns="http://www.w3.org/2000/svg">
<path d="M13.8561 6.27115C13.7709 6.18523 13.6695 6.11704 13.5578 6.0705C13.4461 6.02396 13.3263 6 13.2053 6C13.0843 6 12.9645 6.02396 12.8528 6.0705C12.7411 6.11704 12.6397 6.18523 12.5545 6.27115L7.97115 10.8545C7.88523 10.9397 7.81703 11.0411 7.77049 11.1528C7.72396 11.2645 7.7 11.3843 7.7 11.5053C7.7 11.6263 7.72396 11.7461 7.77049 11.8578C7.81703 11.9695 7.88523 12.0709 7.97115 12.1562L12.5545 16.7395C12.6397 16.8254 12.7411 16.8936 12.8528 16.9401C12.9645 16.9867 13.0843 17.0106 13.2053 17.0106C13.3263 17.0106 13.4461 16.9867 13.5578 16.9401C13.6695 16.8936 13.7709 16.8254 13.8561 16.7395C13.9421 16.6543 14.0103 16.5529 14.0568 16.4412C14.1033 16.3295 14.1273 16.2097 14.1273 16.0887C14.1273 15.9676 14.1033 15.8478 14.0568 15.7361C14.0103 15.6244 13.9421 15.523 13.8561 15.4378L9.91448 11.5053L13.8561 7.57282C13.9421 7.4876 14.0103 7.38622 14.0568 7.27451C14.1033 7.16281 14.1273 7.04299 14.1273 6.92198C14.1273 6.80097 14.1033 6.68116 14.0568 6.56945C14.0103 6.45775 13.9421 6.35636 13.8561 6.27115Z" fill="#949494"/>
</svg>
